<svg xmlns="http://www.w3.org/2000/svg" viewBox="0 0 91 57.14"><defs><style>.cls-1{fill:red;}.cls-2{fill:blue;}.cls-3{fill:#fff;}</style></defs><title>Asset 23</title><g id="Layer_2" data-name="Layer 2"><g id="America"><g id="America-2" data-name="America"><rect id="_5" data-name="5" class="cls-1" y="50.79" width="91" height="6.35"/><rect id="_4" data-name="4" class="cls-1" y="38.09" width="91" height="6.35"/><rect id="_3" data-name="3" class="cls-1" x="29.63" y="25.4" width="61.37" height="6.35"/><rect id="_2" data-name="2" class="cls-1" x="29.63" y="12.7" width="61.37" height="6.35"/><rect id="_1" data-name="1" class="cls-1" x="29.63" width="61.37" height="6.35"/><rect id="Blue" class="cls-2" x="0.53" width="29.1" height="31.74"/><polygon id="_4-2" data-name="4" class="cls-3" points="7.76 14.81 5.36 13.65 3.04 14.97 3.4 12.32 1.43 10.52 4.06 10.05 5.16 7.62 6.42 9.97 9.07 10.27 7.22 12.2 7.76 14.81"/><polygon id="_5-2" data-name="5" class="cls-3" points="16.23 14.81 13.82 13.65 11.5 14.97 11.87 12.32 9.89 10.52 12.52 10.05 13.62 7.62 14.88 9.97 17.54 10.27 15.69 12.2 16.23 14.81"/><polygon id="_6" data-name="6" class="cls-3" points="24.69 14.81 22.29 13.65 19.96 14.97 20.33 12.32 18.36 10.52 20.99 10.05 22.09 7.62 23.35 9.97 26 10.27 24.15 12.2 24.69 14.81"/><polygon id="_11" data-name="11" class="cls-3" points="16.23 29.63 13.82 28.46 11.5 29.78 11.87 27.14 9.89 25.34 12.52 24.87 13.62 22.43 14.88 24.79 17.54 25.09 15.69 27.01 16.23 29.63"/><polygon id="_12" data-name="12" class="cls-3" points="24.69 29.63 22.29 28.46 19.96 29.78 20.33 27.14 18.36 25.34 20.99 24.87 22.09 22.43 23.35 24.79 26 25.09 24.15 27.01 24.69 29.63"/><polygon id="_10" data-name="10" class="cls-3" points="7.76 29.63 5.36 28.46 3.04 29.78 3.4 27.14 1.43 25.34 4.06 24.87 5.16 22.43 6.42 24.79 9.07 25.09 7.22 27.01 7.76 29.63"/><polygon id="_7" data-name="7" class="cls-3" points="6.7 22.22 4.3 21.06 1.98 22.38 2.34 19.73 0.37 17.93 3 17.46 4.1 15.03 5.36 17.38 8.02 17.68 6.16 19.61 6.7 22.22"/><polygon id="_1-2" data-name="1" class="cls-3" points="6.7 7.41 4.3 6.24 1.98 7.56 2.34 4.92 0.37 3.12 3 2.65 4.1 0.21 5.36 2.57 8.02 2.87 6.16 4.79 6.7 7.41"/><polygon id="_2-2" data-name="2" class="cls-3" points="15.17 7.41 12.76 6.24 10.44 7.56 10.81 4.92 8.83 3.12 11.46 2.65 12.57 0.21 13.83 2.57 16.48 2.87 14.63 4.79 15.17 7.41"/><polygon id="_3-2" data-name="3" class="cls-3" points="23.63 7.41 21.23 6.24 18.91 7.56 19.27 4.92 17.3 3.12 19.93 2.65 21.03 0.21 22.29 2.57 24.95 2.87 23.09 4.79 23.63 7.41"/><polygon id="_8" data-name="8" class="cls-3" points="15.17 22.22 12.76 21.06 10.44 22.38 10.81 19.73 8.83 17.93 11.46 17.46 12.57 15.03 13.83 17.38 16.48 17.68 14.63 19.61 15.17 22.22"/><polygon id="_9" data-name="9" class="cls-3" points="23.63 22.22 21.23 21.06 18.91 22.38 19.27 19.73 17.3 17.93 19.93 17.46 21.03 15.03 22.29 17.38 24.95 17.68 23.09 19.61 23.63 22.22"/></g></g></g></svg>