<svg xmlns="http://www.w3.org/2000/svg" viewBox="0 0 134.82 85.7"><defs><style>.cls-1{fill:#ed1c24;}.cls-2{fill:#fcee21;}</style></defs><title>Asset 9</title><g id="Layer_2" data-name="Layer 2"><g id="Candy"><g id="candy-2" data-name="candy"><circle id="candy_body" data-name="candy body" class="cls-1" cx="67.87" cy="42.64" r="35.5"/><polygon id="right_wrapper" data-name="right wrapper" class="cls-2" points="123.82 27.56 128 16.67 127.39 15.3 116.5 11.12 120.67 0.23 120.57 0 88.6 14.25 102.85 46.22 134.82 31.97 134.72 31.74 123.82 27.56"/><polygon id="left_wrapper" data-name="left wrapper" class="cls-2" points="18.32 74.58 7.43 70.4 6.82 69.03 10.99 58.13 0.1 53.96 0 53.73 31.97 39.48 46.22 71.45 14.25 85.7 14.14 85.47 18.32 74.58"/><path id="candy_logo" data-name="candy logo" class="cls-2" d="M96.11,64.16a35.85,35.85,0,0,0,6.37-13.62L36.85,25.37a35.72,35.72,0,0,0-4.37,14.39Z"/></g></g></g></svg>