<svg xmlns="http://www.w3.org/2000/svg" viewBox="0 0 43.39 125"><defs><style>.cls-1{fill:lime;}.cls-2{fill:#f7931e;}</style></defs><title>Asset 20</title><g id="Layer_2" data-name="Layer 2"><g id="Carrot"><g id="Carrot-2" data-name="Carrot"><rect id="Middle_leaf" data-name="Middle leaf" class="cls-1" x="18.48" width="6.64" height="26" rx="3.32" ry="3.32"/><rect id="Right_Leaf" data-name="Right Leaf" class="cls-1" x="25.12" y="3.32" width="6.64" height="26" rx="3.32" ry="3.32" transform="translate(19.87 -15.33) rotate(45)"/><rect id="Left_Leaf" data-name="Left Leaf" class="cls-1" x="11.85" y="3.32" width="6.64" height="26" rx="3.32" ry="3.32" transform="translate(37.43 17.13) rotate(135)"/><path id="Carrot-3" data-name="Carrot" class="cls-2" d="M23.46,125h0L.6,38.83A17.7,17.7,0,0,1,17.71,16.59h8A17.7,17.7,0,0,1,43,38.17Z"/><path id="Ring_1" data-name="Ring 1" d="M0,33.74H43.38c0-.56-.06-1.11-.13-1.66H.14C.07,32.63,0,33.18,0,33.74Z"/><polygon id="Ring_2" data-name="Ring 2" points="41.84 43.14 1.74 43.14 2.19 44.8 41.47 44.8 41.84 43.14"/><polygon id="Ring_3" data-name="Ring 3" points="4.83 54.76 39.23 54.76 39.6 53.1 4.39 53.1 4.83 54.76"/><polygon id="ring_4" data-name="ring 4" points="7.47 64.71 37 64.71 37.37 63.05 7.03 63.05 7.47 64.71"/><polygon id="ring_5" data-name="ring 5" points="10.11 74.67 34.76 74.67 35.13 73.01 9.67 73.01 10.11 74.67"/><polygon id="ring_6" data-name="ring 6" points="12.75 84.62 32.53 84.62 32.9 82.97 12.31 82.97 12.75 84.62"/><polygon id="ring_7" data-name="ring 7" points="15.39 94.58 30.29 94.58 30.66 92.92 14.95 92.92 15.39 94.58"/><polygon id="ring_8" data-name="ring 8" points="18.03 104.53 28.06 104.53 28.43 102.88 17.59 102.88 18.03 104.53"/><polygon id="ring_9" data-name="ring 9" points="20.67 114.49 25.82 114.49 26.19 112.83 20.23 112.83 20.67 114.49"/></g></g></g></svg>