<svg xmlns="http://www.w3.org/2000/svg" viewBox="0 0 106 116.03"><defs><style>.cls-1{fill:#f7931e;}.cls-2{fill:lime;}</style></defs><title>Asset 21</title><g id="Layer_2" data-name="Layer 2"><g id="Carved_Pumpkin" data-name="Carved Pumpkin"><g id="Pumpkin"><path id="Pumpkin-2" data-name="Pumpkin" class="cls-1" d="M106,67.5C106,94.29,71,117,53,116,24,114.39,0,94.29,0,67.5S23.73,19,53,19,106,40.71,106,67.5Z"/><polygon id="Left_eye" data-name="Left eye" points="33 41.31 33 41.31 48 65.69 18 65.69 33 41.31"/><polygon id="Right_eye" data-name="Right eye" points="71 41.63 71 41.63 86 66 56 66 71 41.63"/><polygon id="Nose" points="52 72.13 52 72.13 59 83.5 45 83.5 52 72.13"/><path id="Stem" class="cls-2" d="M56,28H50V11c0-2.81,3.19-11,6-11,9.56,0,9.56,12,0,12Z"/><path id="Smile" d="M66,90v4H59V90H45v4H38V90H24c0,8.28,13,15,29,15s29-6.72,29-15Z"/></g></g></g></svg>