<svg xmlns="http://www.w3.org/2000/svg" viewBox="0 0 77.95 76.11"><defs><style>.cls-1{fill:#8c6239;}.cls-2{fill:#fcee21;}.cls-3{fill:#29abe2;}.cls-4{fill:#ff0;}</style></defs><title>Asset 11</title><g id="Layer_2" data-name="Layer 2"><g id="Magic_Ball" data-name="Magic Ball"><g id="Magic_Ball-2" data-name="Magic Ball"><path id="Base_plate" data-name="Base plate" class="cls-1" d="M78,76.11a7.52,7.52,0,0,0-7.48-7h-63a7.52,7.52,0,0,0-7.47,7Z"/><rect id="Gold" class="cls-2" x="14.97" y="59.11" width="48" height="10"/><path id="Ball" class="cls-3" d="M17.49,59.11h43A33.76,33.76,0,0,0,72,33.61C72,15.05,57.2,0,39,0S6,15.05,6,33.61A33.77,33.77,0,0,0,17.49,59.11Z"/><rect id="Top_diamond" data-name="Top diamond" class="cls-4" x="45.02" y="11.93" width="9.09" height="9.44" transform="translate(28.35 -31.14) rotate(47.49)"/><rect id="middle_diamond" data-name="middle diamond" class="cls-4" x="54.4" y="21.34" width="7.19" height="6.92" transform="translate(37.09 -34.71) rotate(47.49)"/><rect id="bottom_diamond" data-name="bottom diamond" class="cls-4" x="50.03" y="33.41" width="5.9" height="5.41" transform="translate(43.8 -27.34) rotate(47.49)"/></g></g></g></svg>