<svg xmlns="http://www.w3.org/2000/svg" viewBox="0 0 93 138"><defs><style>.cls-1{fill:#ff0;}.cls-2{fill:#f0f;}</style></defs><title>Asset 8</title><g id="Layer_2" data-name="Layer 2"><g id="Easter_egg" data-name="Easter egg"><g id="Easter_Egg-2" data-name="Easter Egg"><g id="Yellow_1" data-name="Yellow 1"><path class="cls-1" d="M16.89,15.79H76.11C68.06,5.93,57.75,0,46.5,0S24.94,5.93,16.89,15.79Z"/></g><g id="pink_1" data-name="pink 1"><path class="cls-2" d="M4.8,38.45H88.2A71.74,71.74,0,0,0,76.11,15.79H16.89A71.74,71.74,0,0,0,4.8,38.45Z"/></g><g id="Yellow_2" data-name="Yellow 2"><path class="cls-1" d="M.3,61.1H92.7a95,95,0,0,0-4.5-22.65H4.8A95,95,0,0,0,.3,61.1Z"/></g><g id="Pink_2" data-name="Pink 2"><path class="cls-2" d="M0,69A101.43,101.43,0,0,0,1.07,83.76H91.93A101.43,101.43,0,0,0,93,69c0-2.67-.11-5.3-.3-7.9H.3C.11,63.7,0,66.33,0,69Z"/></g><g id="yellow_3" data-name="yellow 3"><path class="cls-1" d="M7.43,106.42H85.57a88.93,88.93,0,0,0,6.36-22.66H1.07A88.93,88.93,0,0,0,7.43,106.42Z"/></g><g id="Pink_3" data-name="Pink 3"><path class="cls-2" d="M7.43,106.42c4.07,9.35,9.63,17.15,16.19,22.65H69.38c6.56-5.5,12.12-13.3,16.19-22.65Z"/></g><g id="Yellow_4" data-name="Yellow 4"><path class="cls-1" d="M46.5,138c8.32,0,16.13-3.25,22.88-8.93H23.62C30.37,134.75,38.18,138,46.5,138Z"/></g></g></g></g></svg>