<svg xmlns="http://www.w3.org/2000/svg" viewBox="0 0 56.45 56.81"><defs><style>.cls-1{fill:red;}.cls-2{fill:#ff0;}.cls-3{fill:#fff;}.cls-4{fill:#999;}</style></defs><title>Asset 12</title><g id="Layer_2" data-name="Layer 2"><g id="Firework"><g id="Firework-2" data-name="Firework"><rect id="Rocket_Body" data-name="Rocket Body" class="cls-1" x="15.95" y="7.9" width="24" height="42" transform="translate(28.1 -11.31) rotate(44.25)"/><polygon id="Rocket_head" data-name="Rocket head" class="cls-2" points="56.31 26.87 56.45 26.87 56.1 0 29.24 0.35 29.24 0.49 56.31 26.87"/><polygon id="Top" class="cls-3" points="27.76 11.98 45.09 16.12 39.28 10.62 30.94 8.63 27.76 11.98"/><polygon id="Second" class="cls-3" points="20.89 18.94 47.76 25.77 50.98 22.46 24.12 15.63 20.89 18.94"/><polygon id="THird" class="cls-3" points="13.92 26.1 40.78 32.93 44 29.62 17.14 22.8 13.92 26.1"/><polygon id="Fourth" class="cls-3" points="7.13 33.08 33.98 39.9 37.21 36.59 10.35 29.77 7.13 33.08"/><polygon id="Bottom" class="cls-3" points="13.54 44.17 26.59 47.49 29.81 44.18 7.81 38.59 13.54 44.17"/><rect id="Fuse" class="cls-4" x="5.51" y="41.18" width="3" height="17" transform="translate(36.65 9.21) rotate(44.25)"/></g></g></g></svg>