<svg xmlns="http://www.w3.org/2000/svg" viewBox="0 0 77 95"><defs><style>.cls-1{fill:#ccc;}</style></defs><title>Asset 25</title><g id="Layer_2" data-name="Layer 2"><g id="Ghost"><g id="Ghost-2" data-name="Ghost"><rect id="Body" class="cls-1" x="6" width="63" height="88" rx="31.5" ry="31.5"/><circle id="Left" class="cls-1" cx="14.5" cy="77.5" r="14.5"/><circle id="Middle" class="cls-1" cx="37.5" cy="80.5" r="14.5"/><circle id="right" class="cls-1" cx="62.5" cy="77.5" r="14.5"/><circle id="Left_Eye" data-name="Left Eye" cx="25.5" cy="22.5" r="7.5"/><circle id="right_eye" data-name="right eye" cx="48.5" cy="22.5" r="7.5"/><path id="Smile" d="M53,36c0,.17,0,.33,0,.5a15.5,15.5,0,0,1-31,0c0-.17,0-.33,0-.5H20c0,.17,0,.33,0,.5a17.5,17.5,0,0,0,35,0c0-.17,0-.33,0-.5Z"/></g></g></g></svg>