<svg xmlns="http://www.w3.org/2000/svg" viewBox="0 0 82 88"><defs><style>.cls-1{fill:#29abe2;}.cls-2{fill:#f7931e;}</style></defs><title>Asset 22</title><g id="Layer_2" data-name="Layer 2"><g id="Menorah"><g id="Menorah-2" data-name="Menorah"><path id="_Base" data-name=" Base" class="cls-1" d="M41,77A11,11,0,0,0,30,88H52A11,11,0,0,0,41,77Z"/><rect id="Middle_candle" data-name="Middle candle" class="cls-1" x="38.21" y="16" width="5.59" height="68"/><path id="Inner_ring" data-name="Inner ring" class="cls-1" d="M41,30.49C32.38,30.49,25.39,24,25.39,16H22c0,9.74,8.51,17.64,19,17.64S60,25.74,60,16H56.61C56.61,24,49.62,30.49,41,30.49Z"/><path id="_2nd_ring" data-name="2nd ring" class="cls-1" d="M41,35.07c-11.34,0-20.54-8.54-20.54-19.07H16c0,12.82,11.19,23.21,25,23.21S66,28.82,66,16H61.54C61.54,26.53,52.34,35.07,41,35.07Z"/><path id="_3rd_ring" data-name="3rd ring" class="cls-1" d="M41,41.41C26.48,41.41,14.71,30.48,14.71,16H9C9,33.41,23.33,46.71,41,46.71S73,33.41,73,16H67.29C67.29,30.48,55.52,41.41,41,41.41Z"/><path id="_4th_ring" data-name="4th ring" class="cls-1" d="M41,49C22.4,49,7.32,33.27,7.32,16H0C0,37,18.36,55,41,55S82,37,82,16H74.68C74.68,33.27,59.6,49,41,49Z"/><path id="Left_1" data-name="Left 1" class="cls-2" d="M7.42,11.89C7.42,15.48,5.74,16,3.66,16S.58,14.8.58,11.21,3.32,3,3.66,3,7.42,8.3,7.42,11.89Z"/><path id="Middle_flame" data-name="Middle flame" class="cls-2" d="M45.47,11.63c0,4.7-2.2,5.37-4.92,5.37s-4-1.57-4-6.26S40.11,0,40.55,0,45.47,6.94,45.47,11.63Z"/><path id="right_1" data-name="right 1" class="cls-2" d="M81.42,11.89c0,3.59-1.68,4.11-3.76,4.11s-3.08-1.2-3.08-4.79S77.32,3,77.66,3,81.42,8.3,81.42,11.89Z"/><path id="Left_2" data-name="Left 2" class="cls-2" d="M15,12.6c0,3.15-1.48,3.6-3.3,3.6S9,15.15,9,12s2.4-7.2,2.7-7.2S15,9.45,15,12.6Z"/><path id="right_2" data-name="right 2" class="cls-2" d="M73,12.6c0,3.15-1.48,3.6-3.3,3.6S67,15.15,67,12s2.4-7.2,2.7-7.2S73,9.45,73,12.6Z"/><path id="Left_3" data-name="Left 3" class="cls-2" d="M20.37,13.16c0,2.48-1.17,2.84-2.61,2.84s-2.13-.83-2.13-3.32A10.66,10.66,0,0,1,17.76,7C18,7,20.37,10.67,20.37,13.16Z"/><path id="right_3" data-name="right 3" class="cls-2" d="M66.37,13.16c0,2.48-1.17,2.84-2.61,2.84s-2.13-.83-2.13-3.32A10.66,10.66,0,0,1,63.76,7C64,7,66.37,10.67,66.37,13.16Z"/><path id="Left_4" data-name="Left 4" class="cls-2" d="M26.37,13.16c0,2.48-1.17,2.84-2.61,2.84s-2.13-.83-2.13-3.32A10.66,10.66,0,0,1,23.76,7C24,7,26.37,10.67,26.37,13.16Z"/><path id="Right_4" data-name="Right 4" class="cls-2" d="M60.37,13.16c0,2.48-1.17,2.84-2.61,2.84s-2.13-.83-2.13-3.32A10.66,10.66,0,0,1,57.76,7C58,7,60.37,10.67,60.37,13.16Z"/></g></g></g></svg>