<svg xmlns="http://www.w3.org/2000/svg" viewBox="0 0 106 143"><defs><style>.cls-1{fill:blue;}.cls-2{fill:#ff0;}.cls-3{fill:#b3b3b3;}</style></defs><title>Asset 5</title><g id="Layer_2" data-name="Layer 2"><g id="Christmas_Ornament" data-name="Christmas Ornament"><g id="Christmas_Ornament-2" data-name="Christmas Ornament"><circle id="Ornament" class="cls-1" cx="53" cy="90" r="53"/><polygon id="Full_right_star" data-name="Full right star" class="cls-2" points="88.95 84.58 80.66 72.04 75.75 86.25 61.26 90.26 73.26 99.32 72.6 114.34 84.92 105.73 99 111 94.62 96.62 103.98 84.86 88.95 84.58"/><path id="Half_Left_star" data-name="Half Left star" class="cls-2" d="M.09,87l9-3.33L30,98.33,28.93,72.75,49.39,57.36,24.73,50.47l-1.49-4.33A53,53,0,0,0,.09,87Z"/><polygon id="Small_star" data-name="Small star" class="cls-2" points="67.33 69.33 61.42 63.86 53.56 65.62 56.94 58.31 52.83 51.38 60.83 52.33 66.16 46.28 67.72 54.19 75.12 57.38 68.08 61.31 67.33 69.33"/><path id="Bottom_star" data-name="Bottom star" class="cls-2" d="M50.83,124.67l7.88-17.36-18.57,4.3L26.06,98.76l-1.64,19L12.7,124.4a53.31,53.31,0,0,0,9.94,9l2.76,1.17.15.74a52.22,52.22,0,0,0,14.07,5.95l2.1-2.42,19,2.13Z"/><rect id="Hook_base" data-name="Hook base" class="cls-3" x="34" y="33" width="37" height="9"/><path id="Hook" d="M52,0A17,17,0,1,0,69,17,17,17,0,0,0,52,0Zm-.25,31A14.25,14.25,0,1,1,66,16.75,14.25,14.25,0,0,1,51.75,31Z"/></g></g></g></svg>