<svg xmlns="http://www.w3.org/2000/svg" viewBox="0 0 98.02 95"><defs><style>.cls-1{fill:#ccc;}</style></defs><title>Asset 15</title><g id="Layer_2" data-name="Layer 2"><g id="Skull_and_bones" data-name="Skull and bones"><g id="Skull_and_bones-2" data-name="Skull and bones"><rect id="Right_Bone" data-name="Right Bone" class="cls-1" x="42.67" y="-7.63" width="14.19" height="108.76" rx="3" ry="3" transform="translate(47.63 -21.5) rotate(45)"/><rect id="Left_Bone" data-name="Left Bone" class="cls-1" x="42.67" y="-7.63" width="14.19" height="108.76" rx="3" ry="3" transform="translate(118 44.61) rotate(135)"/><circle id="Right_top_1" data-name="Right top 1" class="cls-1" cx="82.94" cy="6.03" r="6.03"/><circle id="Left_top_1" data-name="Left top 1" class="cls-1" cx="15.08" cy="6.03" r="6.03"/><circle id="Bottom_left_1" data-name="Bottom left 1" class="cls-1" cx="6.03" cy="81.43" r="6.03"/><circle id="bottom_right_1" data-name="bottom right 1" class="cls-1" cx="91.98" cy="81.43" r="6.03"/><circle id="bottom_left_2" data-name="bottom left 2" class="cls-1" cx="13.57" cy="88.97" r="6.03"/><circle id="Bottom_right_2" data-name="Bottom right 2" class="cls-1" cx="82.94" cy="88.97" r="6.03"/><circle id="top_right_2" data-name="top right 2" class="cls-1" cx="90.48" cy="13.57" r="6.03"/><circle id="top_left_2" data-name="top left 2" class="cls-1" cx="9.05" cy="13.57" r="6.03"/><ellipse id="Skull_Head" data-name="Skull Head" class="cls-1" cx="52.02" cy="46.17" rx="33.93" ry="38.63"/><ellipse id="Right_Cheek_Bone" data-name="Right Cheek Bone" class="cls-1" cx="71.88" cy="74.92" rx="5.79" ry="6.29"/><ellipse id="Left_Cheek_Bone" data-name="Left Cheek Bone" class="cls-1" cx="30.51" cy="74.92" rx="5.79" ry="6.29"/><path id="Mouth" class="cls-1" d="M56,45.27H46.39C39,45.27,33,50.76,33,57.47V79.79a12,12,0,0,0,6.62,10.49V86h3.31v5.59a14.43,14.43,0,0,0,3.31.42V86h3.31v6h3.31V86h3.31v6a14.92,14.92,0,0,0,3.31-.43V86h3.31v4.32A12,12,0,0,0,69.4,79.79V57.47C69.4,50.76,63.37,45.27,56,45.27Z"/><polygon id="Nose_Hole" data-name="Nose Hole" points="43.8 61.51 51.35 77.46 58.34 61.44 43.8 61.51"/><path id="Left_Eye_Hole" data-name="Left Eye Hole" d="M31.22,44.61A10.48,10.48,0,0,0,29.9,49c-.39,5.44,3.36,10.2,8.37,10.62s9.39-3.64,9.78-9.08A10.44,10.44,0,0,0,47.37,46Z"/><path id="Right_Eye_Hole" data-name="Right Eye Hole" d="M56.67,46A10.59,10.59,0,0,0,56,50.54c.39,5.44,4.77,9.51,9.78,9.08S74.54,54.44,74.15,49a10.48,10.48,0,0,0-1.32-4.39Z"/></g></g></g></svg>