<svg xmlns="http://www.w3.org/2000/svg" viewBox="0 0 51 106"><title>Asset 10</title><g id="Layer_2" data-name="Layer 2"><g id="Snowman"><g id="Snowman-2" data-name="Snowman"><path id="Head" d="M25.5,0C16.23,0,8.71,7.26,8.71,16.21S16.23,32.42,25.5,32.42s16.79-7.25,16.79-16.21S34.77,0,25.5,0Zm0,31.57c-8.79,0-15.91-6.88-15.91-15.36S16.71.85,25.5.85,41.41,7.73,41.41,16.21,34.29,31.57,25.5,31.57Z"/><path id="Middle_body" data-name="Middle body" d="M34.73,29.36c-.32.23-.64.46-1,.67A18.3,18.3,0,0,1,45,46.76,18.59,18.59,0,0,1,26.12,65.08,18.59,18.59,0,0,1,7.27,46.76a18.24,18.24,0,0,1,10.52-16.4c-.36-.21-.71-.41-1-.64a19.23,19.23,0,0,0-10.53,17c0,10.68,8.91,19.33,19.9,19.33S46,57.44,46,46.76A19.26,19.26,0,0,0,34.73,29.36Z"/><path id="Bottom_body" data-name="Bottom body" d="M38.88,61c-.33.31-.66.62-1,.91a22.8,22.8,0,0,1,11.8,19.76c0,12.73-10.82,23-24.16,23S1.34,94.41,1.34,81.68a22.91,22.91,0,0,1,12.54-20.2c-.34-.29-.68-.59-1-.91A24.1,24.1,0,0,0,0,81.68C0,95.11,11.42,106,25.5,106S51,95.11,51,81.68A24.08,24.08,0,0,0,38.88,61Z"/><ellipse id="Left_Eye" data-name="Left Eye" cx="19.9" cy="12.47" rx="2.49" ry="2.49"/><ellipse id="Right_eye" data-name="Right eye" cx="29.85" cy="12.47" rx="2.49" ry="2.49"/><polygon id="Nose" points="22.34 16.21 24.78 22.45 27.37 16.21 22.34 16.21"/><ellipse id="Middle_Button" data-name="Middle Button" cx="26.74" cy="46.76" rx="1.87" ry="1.87"/><ellipse id="Top_Button" data-name="Top Button" cx="26.74" cy="38.04" rx="1.87" ry="1.87"/><ellipse id="Bottom_button" data-name="Bottom button" cx="26.74" cy="55.49" rx="1.87" ry="1.87"/></g></g></g></svg>