<svg xmlns="http://www.w3.org/2000/svg" viewBox="0 0 46.67 103.31"><defs><style>.cls-1{fill:blue;}.cls-2{fill:#29abe2;}</style></defs><title>Asset 24</title><g id="Layer_2" data-name="Layer 2"><g id="TIE"><g id="Tie-2" data-name="Tie"><polygon id="Tie-3" data-name="Tie" class="cls-1" points="46.67 79.97 23.34 103.31 0 79.97 22.07 15.23 46.67 79.97"/><polygon id="Knott" class="cls-2" points="39.84 0 4.3 0 22.07 17.77 39.84 0"/><circle id="top_dot" data-name="top dot" class="cls-2" cx="22.07" cy="43.16" r="5.08"/><path id="left_dot" data-name="left dot" class="cls-2" d="M10.64,71.08A6.35,6.35,0,1,0,6.94,59.6L4.58,66.53A6.33,6.33,0,0,0,10.64,71.08Z"/><circle id="bottom_dot" data-name="bottom dot" class="cls-2" cx="24.61" cy="88.86" r="5.08"/><path id="right_dot" data-name="right dot" class="cls-2" d="M34.76,76.16a10.1,10.1,0,0,0,8.62-4.85l-5.69-15a10.13,10.13,0,1,0-2.93,19.83Z"/></g></g></g></svg>