<svg xmlns="http://www.w3.org/2000/svg" viewBox="0 0 93 116.38"><defs><style>.cls-1{fill:#006837;}.cls-2{fill:red;}.cls-3{fill:#ff0;}</style></defs><title>Asset 27</title><g id="Layer_2" data-name="Layer 2"><g id="Wreathe"><g id="Wreathe-2" data-name="Wreathe"><path id="Garland" class="cls-1" d="M46.5,0A46.5,46.5,0,1,0,93,46.5,46.5,46.5,0,0,0,46.5,0Zm0,76A29.5,29.5,0,1,1,76,46.5,29.5,29.5,0,0,1,46.5,76Z"/><path id="bow" class="cls-2" d="M76.16,78.47H59.51c-1.49,0-2.73,1.17-7.38,2.63a7.06,7.06,0,0,0-10.84-.18c-4.18-1.38-5.37-2.45-6.8-2.45H17.84A2.85,2.85,0,0,0,15,81.31v8.46a2.84,2.84,0,0,0,2.84,2.84H34.49a3.59,3.59,0,0,0,1.21-.23L23.51,109.31a3,3,0,0,0,.68,4.17l3.25,2.34a3,3,0,0,0,4.18-.68l14.83-20.6,14.83,20.6a3,3,0,0,0,4.18.68l3.25-2.34a3,3,0,0,0,.68-4.17L56.73,91.73a7.33,7.33,0,0,0,2.78.88H76.16A2.84,2.84,0,0,0,79,89.77V81.31A2.85,2.85,0,0,0,76.16,78.47Z"/><circle id="dot" class="cls-3" cx="46" cy="87" r="6"/></g></g></g></svg>